# Blender 4.1.1
# www.blender.org
mtllib Map2.mtl
o Map.002
v -10.000000 -1.250000 10.000000
v -10.000000 1.250000 10.000000
v -3.538350 0.843111 -1.670316
v -10.000000 -1.250000 -10.000000
v 2.404711 0.841923 -6.527377
v -10.000000 1.250000 -10.000000
v 5.934620 0.837070 -2.648404
v -5.835521 0.851537 5.760730
v 10.000000 -1.250000 10.000000
v 10.000000 1.250000 10.000000
v -5.852069 0.840218 9.513940
v 10.000000 -1.250000 -10.000000
v 10.000000 1.250000 -10.000000
v -3.450789 0.816929 -3.306675
v 2.531819 0.816929 -8.188709
v 7.696052 0.816929 -2.460080
v -4.607802 0.816929 6.400952
v -4.636023 0.816929 8.319902
v -10.000000 1.250000 -9.934477
v -10.000000 1.250000 -8.224131
v -10.000000 0.841178 -8.224131
v -10.000000 0.818903 -8.358706
v -10.000000 0.816929 -9.934477
v -10.000000 0.816929 -10.000000
v -10.000000 0.815406 -10.000000
v 10.000000 0.845322 -10.000000
v 10.000000 0.845055 -10.000000
v 10.000000 1.250000 9.603628
v 10.000000 1.250000 8.371987
v 10.000000 0.847050 -1.331080
v 10.000000 0.842447 -0.399732
v 10.000000 0.850780 9.603628
v 10.000000 0.849593 8.371987
v -5.835521 1.250000 5.760730
v -3.538350 1.250000 -1.670316
v -3.450789 1.250000 -3.306675
v 2.404711 1.250000 -6.527377
v 2.531819 1.250000 -8.188709
v -5.852069 1.250000 9.513940
v -4.607802 1.250000 6.400952
v -4.636023 1.250000 8.319902
v 5.934620 1.250000 -2.648404
v 7.696052 1.250000 -2.460080
vn -1.0000 -0.0000 -0.0000
vn -0.0000 -0.0000 -1.0000
vn 1.0000 -0.0000 -0.0000
vn -0.0000 -0.0000 1.0000
vn -0.0000 -1.0000 -0.0000
vn -0.0000 1.0000 -0.0000
vn 0.0001 1.0000 0.0012
vn 0.0057 -0.0000 -1.0000
vn 0.7396 -0.0000 -0.6730
vn 0.5813 -0.0000 0.8137
vn 0.7121 -0.0000 -0.7021
vn 1.0000 -0.0000 0.0044
vn -0.6328 -0.0000 -0.7743
vn 0.0031 -1.0000 -0.0028
vn -0.0036 -0.0000 1.0000
vn -0.7427 -0.0000 0.6696
vn -0.5844 -0.0000 -0.8115
vn -0.7113 -0.0000 0.7029
vn -0.9999 -0.0000 -0.0147
vn 0.6322 -0.0000 0.7748
vn -0.0015 1.0000 -0.0023
vn -0.0015 1.0000 -0.0021
vn 0.0223 0.9863 -0.1633
vn -0.0000 1.0000 -0.0003
vn -0.0041 1.0000 0.0049
vn -0.0024 1.0000 -0.0002
vn -0.0007 1.0000 0.0030
vn -0.0009 1.0000 -0.0008
vn 0.0003 1.0000 -0.0012
vn 0.0022 -1.0000 -0.0000
vn 0.0019 -1.0000 0.0026
vn 0.0014 -1.0000 -0.0097
vn 0.0130 -0.9999 0.0002
vt 0.596055 0.250000
vt 0.625000 0.249181
vt 0.625000 0.250000
vt 0.375000 0.000000
vt 0.584118 0.227802
vt 0.581890 0.229484
vt 0.596055 0.500000
vt 0.375000 0.500000
vt 0.581541 0.250000
vt 0.584532 0.500000
vt 0.375000 0.750000
vt 0.584245 0.620003
vt 0.585078 0.745045
vt 0.596055 0.729650
vt 0.625000 0.500000
vt 0.625000 0.729650
vt 0.625000 0.750000
vt 0.375000 1.000000
vt 0.125000 0.750000
vt 0.125000 0.500000
vt 0.875000 0.750000
vt 0.823151 0.743924
vt 0.822944 0.697009
vt 0.718352 0.522641
vt 0.653799 0.594249
vt 0.000000 0.000000
vt 0.596055 0.249181
vt 0.375000 0.250000
vt 0.625000 0.000000
vt 0.625000 0.227802
vt 0.625000 0.745045
vt 0.584705 0.608361
vt 0.625000 1.000000
vt 0.675817 0.591895
vt 0.719941 0.543408
vt 0.794229 0.604121
vt 0.875000 0.522198
vt 0.807598 0.705012
vt 0.807950 0.728999
vt 0.875000 0.500000
vt 0.875000 0.500819
vt 0.793135 0.583667
s 0
f 24/1/1 19/2/1 6/3/1
f 1/4/1 21/5/1 22/6/1
f 6/3/2 27/7/2 24/1/2
f 12/8/2 25/9/2 26/10/2
f 9/11/3 31/12/3 32/13/3
f 33/14/3 13/15/3 29/16/3
f 10/17/4 1/18/4 9/11/4
f 12/8/5 1/19/5 4/20/5
f 2/21/6 39/22/6 34/23/6
f 13/15/6 38/24/6 43/25/6
f 26/26/7 5/26/7 7/26/7
f 32/26/8 39/26/8 28/26/8
f 42/26/9 5/26/9 37/26/9
f 8/26/10 42/26/10 34/26/10
f 3/26/11 20/26/11 35/26/11
f 39/26/12 8/26/12 34/26/12
f 3/26/13 37/26/13 5/26/13
f 16/26/14 15/26/14 27/26/14
f 41/26/15 33/26/15 29/26/15
f 16/26/16 38/26/16 15/26/16
f 17/26/17 43/26/17 16/26/17
f 14/26/18 19/26/18 23/26/18
f 18/26/19 40/26/19 17/26/19
f 14/26/20 38/26/20 36/26/20
f 24/1/1 23/27/1 19/2/1
f 25/9/1 4/28/1 22/6/1
f 4/28/1 1/4/1 22/6/1
f 1/4/1 2/29/1 21/5/1
f 2/29/1 20/30/1 21/5/1
f 6/3/2 13/15/2 27/7/2
f 12/8/2 4/28/2 25/9/2
f 28/31/3 10/17/3 32/13/3
f 10/17/3 9/11/3 32/13/3
f 9/11/3 12/8/3 31/12/3
f 12/8/3 26/10/3 30/32/3
f 31/12/3 12/8/3 30/32/3
f 33/14/3 27/7/3 13/15/3
f 10/17/4 2/33/4 1/18/4
f 12/8/5 9/11/5 1/19/5
f 42/34/6 37/35/6 35/36/6
f 35/36/6 20/37/6 34/23/6
f 20/37/6 2/21/6 34/23/6
f 2/21/6 10/17/6 39/22/6
f 10/17/6 28/31/6 39/22/6
f 34/23/6 42/34/6 35/36/6
f 43/25/6 40/38/6 29/16/6
f 40/38/6 41/39/6 29/16/6
f 13/15/6 6/40/6 38/24/6
f 6/40/6 19/41/6 38/24/6
f 19/41/6 36/42/6 38/24/6
f 43/25/6 29/16/6 13/15/6
f 26/26/21 25/26/21 5/26/21
f 25/26/22 22/26/22 5/26/22
f 22/26/23 21/26/23 5/26/23
f 21/26/24 3/26/24 5/26/24
f 31/26/25 30/26/25 7/26/25
f 30/26/26 26/26/26 7/26/26
f 11/26/27 32/26/27 8/26/27
f 32/26/28 31/26/28 7/26/28
f 7/26/29 8/26/29 32/26/29
f 32/26/8 11/26/8 39/26/8
f 42/26/9 7/26/9 5/26/9
f 8/26/10 7/26/10 42/26/10
f 3/26/11 21/26/11 20/26/11
f 39/26/12 11/26/12 8/26/12
f 3/26/13 35/26/13 37/26/13
f 33/26/30 18/26/30 17/26/30
f 33/26/31 17/26/31 16/26/31
f 23/26/5 24/26/5 15/26/5
f 24/26/32 27/26/32 15/26/32
f 15/26/5 14/26/5 23/26/5
f 27/26/33 33/26/33 16/26/33
f 41/26/15 18/26/15 33/26/15
f 16/26/16 43/26/16 38/26/16
f 17/26/17 40/26/17 43/26/17
f 14/26/18 36/26/18 19/26/18
f 18/26/19 41/26/19 40/26/19
f 14/26/20 15/26/20 38/26/20
